# xmcd CD database file
#
# Track frame offsets:
#	182
#	12105
#	22130
#	36212
#	49087
#	62320
#	72187
#	81862
#	93522
#	102177
#	115817
#	126157
#	137492
#	149622
#	163285
#	174045
#	190875
#	204342
#	213972
#	223090
#	232650
#	244087
#	258627
#
# Disc length: 3640 seconds
#
# Revision: 0
# Processed by: cddbd v1.4PL0 Copyright (c) Steve Scherf et al.
# Submitted via: CDex 1.50
#
DISCID=420e3617
DTITLE=Various Artist - Elko Blues (Vol 1)
DYEAR=1900
DGENRE=Vintage R&B
TTITLE0=Clifton Chenier - Rockin' The Bop
TTITLE1=Clifton Chenier - Tell Me
TTITLE2=Clifton Chenier - Cliston's Blues
TTITLE3=Clifton Chenier - Louisiana Stomp
TTITLE4=George "Harmonica" Smith - I Don't Know
TTITLE5=George "Harmonica" Smith - Miss O'Malley's Rally
TTITLE6=George "Harmonica" Smith - Hot Rolls
TTITLE7=Elmon Mickle - Flat Foot Sam
TTITLE8=Elmon Mickle - Jackson Blues
TTITLE9=Elmon Mickle and Ernie Pruitt - Short And Fat
TTITLE10=Elmon Mickle - Lonesome Highway
TTITLE11=Elmon Mickle - I Got To Get Some Money
TTITLE12=Jimmy Wilson and Jimmy Nolen Band - Strangest Blues
TTITLE13=Jimmy Wilson and Jimmy Nolen Band - I Used To Love A Woman
TTITLE14=Jimmy Nolen Band - Let's Try It Again
TTITLE15=Jesse Fuller - Mr. Engineer
TTITLE16=Jesse Fuller - San Francisco Bay Blues
TTITLE17=Phillip Walker - Hello My Darling
TTITLE18=Phillip Walker - Playing In The Park
TTITLE19=Phillip Walker with Bea Walker - I Want You For Myself
TTITLE20=Phillip Walker - Louisiana Walk
TTITLE21=Smokey Hogg - Blue And Lonesome Blues
TTITLE22=Smokey Hogg - Misery Is My Life
EXTD=
EXTT0=
EXTT1=
EXTT2=
EXTT3=
EXTT4=
EXTT5=
EXTT6=
EXTT7=
EXTT8=
EXTT9=
EXTT10=
EXTT11=
EXTT12=
EXTT13=
EXTT14=
EXTT15=
EXTT16=
EXTT17=
EXTT18=
EXTT19=
EXTT20=
EXTT21=
EXTT22=
PLAYORDER=
